<svg xmlns="http://www.w3.org/2000/svg" width="48" height="52" viewBox="0 0 48 52" fill="none">
  <path d="M26.0245 1.10411C26.5035 0.944589 27.0263 0.947640 27.4289 1.26015C27.8353 1.57579 27.9607 2.08272 27.9091 2.58175C27.8545 3.11164 27.7675 3.64069 27.6909 4.14221C27.6133 4.65109 27.5445 5.14003 27.5176 5.62516C27.3883 8.02999 27.2264 10.4046 27.2481 12.7777L27.2642 13.7268C27.3734 18.1509 27.9741 22.5304 28.8846 26.8812L29.0846 27.8133L29.1091 27.9046C29.117 27.9271 29.1239 27.9412 29.1284 27.9492C29.1329 27.9508 29.1399 27.952 29.1488 27.9545C29.1812 27.9632 29.2339 27.973 29.3187 27.9788C31.4692 28.126 33.6249 28.4423 35.6955 29.2251L35.8816 29.3026C36.0621 29.3849 36.2283 29.4799 36.3789 29.5712C36.5986 29.7041 36.752 29.8069 36.9415 29.9151L37.3619 30.155L37.0464 30.8939L36.8645 31.3163L36.4143 31.2091C34.2199 30.6888 31.9678 30.4478 29.7124 30.4872C29.9032 31.2229 30.0827 31.9235 30.2867 32.6262C31.4116 36.4888 32.6906 40.2413 34.7811 43.6545L35.1436 44.2309C36.0023 45.5552 36.9639 46.7297 38.2796 47.5599L38.5897 47.7445C40.1382 48.6137 41.6866 48.6982 43.2402 47.8018C44.9151 46.8355 45.6648 45.3592 45.5815 43.4241L45.5804 43.4135V43.4029C45.5802 43.3222 45.5841 43.2412 45.5921 43.1609L45.6371 42.7182L46.0831 42.6737L46.2745 42.6556L46.8392 42.5993L46.8756 43.1609C46.8944 43.4511 46.9331 43.7052 46.9665 44.042C46.9897 44.276 47.0079 44.5296 46.9965 44.7903L46.9741 45.0536C46.3837 49.7291 41.6611 52.2231 37.1523 50.4015C35.0198 49.5389 33.3957 48.0921 32.0633 46.3699L31.8002 46.0216C29.9253 43.4767 28.618 40.6676 27.5444 37.7853L27.0973 36.5454C26.7652 35.5902 26.4614 34.6274 26.169 33.6655L25.309 30.7877C25.2985 30.7525 25.2886 30.7234 25.2801 30.6985C21.2845 31.0504 17.4836 31.9481 13.9994 33.8247L13.3064 34.2133C10.7497 35.7051 8.95567 37.8478 7.83348 40.4943L7.6185 41.0303C7.09339 42.4103 6.60802 43.8048 6.13716 45.2075L4.74352 49.4345C4.5561 50.0028 4.25777 50.4981 3.76487 50.7741C3.32521 51.0202 2.82414 51.0403 2.30386 50.9185L2.08032 50.8581C1.74906 50.7565 1.35788 50.5985 1.14552 50.2424C0.921445 49.8662 0.994972 49.4467 1.10809 49.0969L2.15412 45.8465C2.50903 44.7593 2.87718 43.6729 3.27715 42.5993L4.01302 40.6493C7.48513 31.5656 11.5018 22.7148 16.4167 14.2723L17.4841 12.4689C19.3773 9.32226 21.5145 6.30633 23.5506 3.28343L23.7057 3.06475C24.0816 2.56193 24.538 2.12133 24.9497 1.73147L24.956 1.72722L25.0726 1.62426C25.3531 1.39264 25.6763 1.21696 26.0245 1.10411ZM23.0063 10.1675C18.5457 17.0145 14.8187 24.1166 11.563 31.4691C13.3624 30.4149 15.3197 29.6376 17.3675 29.1699L18.3344 28.9598C20.4134 28.5266 22.5251 28.2002 24.6202 27.8323C23.4817 22.1099 22.7559 16.2408 23.0063 10.1675Z" fill="url(#paint0_linear_87178_94366)" stroke="url(#paint1_linear_87178_94366)" stroke-width="0.75"/>
  <defs>
    <linearGradient id="paint0_linear_87178_94366" x1="23.9999" y1="1.54252" x2="23.9999" y2="50.4578" gradientUnits="userSpaceOnUse">
      <stop stop-color="#6932D5"/>
      <stop offset="1" stop-color="#7163C6"/>
    </linearGradient>
    <linearGradient id="paint1_linear_87178_94366" x1="24" y1="1" x2="24" y2="51" gradientUnits="userSpaceOnUse">
      <stop stop-color="#6932D5"/>
      <stop offset="1" stop-color="#7163C6"/>
    </linearGradient>
  </defs>
</svg>